<?xml version="1.0" standalone="no"?>
<!DOCTYPE svg PUBLIC "-//W3C//DTD SVG 20010904//EN"
 "http://www.w3.org/TR/2001/REC-SVG-20010904/DTD/svg10.dtd">
<svg version="1.0" xmlns="http://www.w3.org/2000/svg"
 width="920.000000pt" height="487.000000pt" viewBox="0 0 920.000000 487.000000"
 preserveAspectRatio="xMidYMid meet">

<g transform="translate(0.000000,487.000000) scale(0.100000,-0.100000)"
fill="#000000" stroke="none">
<path d="M2960 4849 c-301 -35 -576 -172 -786 -391 -202 -211 -332 -484 -379
-796 -17 -110 -20 -408 -5 -517 5 -38 9 -73 10 -77 0 -4 15 -1 33 7 63 26 116
-6 142 -85 9 -26 26 -128 38 -226 l22 -179 108 -3 c88 -2 107 0 107 12 0 8 11
144 25 303 93 1063 137 1424 187 1514 38 69 120 78 165 20 48 -61 55 -261 68
-1776 4 -352 10 -790 15 -974 9 -333 9 -335 33 -358 l23 -24 12 163 c7 90 21
294 32 453 25 369 38 503 55 589 29 141 48 150 306 154 l197 3 16 52 c8 29 40
142 70 252 100 365 129 416 236 406 14 -1 33 -10 44 -19 43 -39 56 -88 110
-427 19 -115 39 -222 45 -237 l11 -28 532 0 c293 0 562 -5 597 -10 78 -11 105
-34 157 -134 l37 -70 18 52 c26 75 68 149 96 168 15 9 63 19 117 24 110 11
125 16 131 44 2 11 9 107 15 211 36 644 93 1546 110 1769 6 71 9 131 6 133 -7
7 -184 -24 -280 -48 -297 -75 -615 -241 -793 -412 l-41 -40 -74 59 c-271 219
-498 329 -848 412 -159 38 -522 54 -720 31z"/>
<path d="M6030 4819 c0 -24 4 -260 10 -524 5 -264 11 -694 15 -955 3 -261 7
-551 10 -645 3 -93 8 -325 11 -515 l7 -345 52 260 c99 498 135 583 252 601 25
4 143 -1 261 -10 118 -9 216 -15 217 -14 1 2 19 35 40 73 98 181 154 245 217
245 72 0 104 -43 133 -175 10 -44 23 -91 30 -104 11 -23 13 -20 33 45 69 234
94 404 95 639 1 463 -143 822 -444 1110 -221 211 -505 332 -828 351 l-111 7 0
-44z"/>
<path d="M5851 4163 c0 -34 -10 -205 -21 -380 -11 -175 -24 -399 -30 -498 -28
-470 -41 -636 -51 -659 -25 -55 -126 -102 -240 -112 l-67 -7 -17 -41 c-10 -22
-21 -50 -26 -61 -26 -64 -70 -152 -81 -166 -21 -26 -54 -39 -97 -39 -55 0
-101 47 -165 171 -27 52 -51 96 -53 99 -3 3 -269 7 -592 10 -544 5 -589 6
-614 23 -58 37 -85 109 -117 302 -11 66 -23 136 -26 155 -5 30 -13 8 -55 -150
-57 -214 -84 -277 -131 -305 -29 -18 -54 -20 -229 -23 l-197 -3 -6 -41 c-10
-63 -33 -347 -56 -683 -11 -170 -28 -384 -36 -475 l-16 -165 109 -103 c312
-299 677 -574 993 -751 188 -105 518 -254 564 -253 31 0 193 65 346 139 739
357 1458 1003 1967 1768 123 185 227 373 303 551 17 40 17 40 -4 50 -28 12
-83 97 -100 154 l-13 44 -43 -82 c-72 -140 -101 -151 -327 -133 -76 6 -173 14
-216 17 l-77 6 -16 -38 c-27 -65 -70 -253 -129 -564 -95 -501 -132 -640 -182
-680 -31 -24 -89 -26 -121 -5 -46 33 -65 185 -77 620 -3 116 -7 248 -10 295
-2 47 -9 461 -15 920 -10 736 -24 1273 -29 1093z"/>
<path d="M2497 3363 c-4 -49 -22 -264 -41 -480 -27 -300 -38 -397 -51 -416
-35 -55 -174 -84 -322 -69 -40 4 -73 6 -73 4 0 -10 117 -234 161 -309 78 -133
305 -460 352 -508 6 -7 7 64 3 205 -3 118 -9 539 -12 935 -4 396 -8 721 -9
723 -1 1 -5 -37 -8 -85z"/>
</g>
</svg>
