<?xml version="1.0" standalone="no"?>
<!DOCTYPE svg PUBLIC "-//W3C//DTD SVG 20010904//EN"
 "http://www.w3.org/TR/2001/REC-SVG-20010904/DTD/svg10.dtd">
<svg version="1.0" xmlns="http://www.w3.org/2000/svg"
 width="920.000000pt" height="502.000000pt" viewBox="0 0 920.000000 502.000000"
 preserveAspectRatio="xMidYMid meet">

<g transform="translate(0.000000,502.000000) scale(0.100000,-0.100000)"
fill="#000000" stroke="none">
<path d="M4071 4913 c-14 -17 -19 -33 -15 -47 13 -41 25 -48 75 -42 32 4 65 0
110 -13 35 -11 65 -18 67 -16 5 5 -125 45 -145 45 -12 0 -14 8 -10 34 4 25 1
39 -12 50 -25 23 -47 20 -70 -11z m6 -35 c-3 -8 -6 -5 -6 6 -1 11 2 17 5 13 3
-3 4 -12 1 -19z m53 -4 c0 -8 -4 -12 -10 -9 -5 3 -10 13 -10 21 0 8 5 12 10 9
6 -3 10 -13 10 -21z m-25 -14 c3 -5 1 -10 -4 -10 -6 0 -11 5 -11 10 0 6 2 10
4 10 3 0 8 -4 11 -10z"/>
<path d="M4170 4892 c0 -5 6 -9 13 -9 6 0 30 -3 52 -7 28 -4 32 -3 15 2 -50
17 -80 22 -80 14z"/>
<path d="M4290 4860 c8 -5 20 -10 25 -10 6 0 3 5 -5 10 -8 5 -19 10 -25 10 -5
0 -3 -5 5 -10z"/>
<path d="M4376 4817 c73 -61 72 -158 -4 -372 -95 -265 -198 -495 -222 -495 -8
0 -20 -4 -27 -8 -6 -4 11 -7 39 -6 l50 2 40 89 c65 144 138 331 175 448 29 94
34 121 31 187 -3 67 -7 81 -33 114 -17 20 -42 44 -55 52 -17 10 -15 7 6 -11z
m23 -378 c-11 -30 -27 -74 -36 -99 -8 -25 -23 -64 -34 -87 -10 -24 -19 -45
-19 -48 0 -16 -114 -255 -121 -255 -13 0 -13 -2 31 89 22 45 40 84 40 86 0 3
11 28 25 57 14 28 25 57 25 64 0 7 6 19 13 26 7 7 13 15 13 18 -2 11 79 219
82 211 1 -5 -7 -33 -19 -62z"/>
<path d="M4320 4787 c0 -2 15 -14 33 -27 20 -15 27 -17 18 -6 -13 16 -51 41
-51 33z"/>
<path d="M3140 4765 c-8 -9 -10 -28 -6 -50 6 -30 4 -35 -11 -35 -34 0 -159
-67 -202 -108 -23 -22 -46 -40 -49 -40 -4 1 -16 -17 -28 -40 -28 -54 -45 -229
-47 -482 -1 -169 1 -195 15 -198 13 -3 16 29 21 260 3 145 10 290 17 323 20
102 65 170 142 218 53 33 134 59 177 58 52 -2 71 12 71 49 0 50 -70 82 -100
45z m20 -19 c0 -3 -4 -8 -10 -11 -5 -3 -10 -1 -10 4 0 6 5 11 10 11 6 0 10 -2
10 -4z m40 -30 c0 -5 -7 -3 -15 4 -8 7 -12 17 -9 22 7 10 24 -9 24 -26z"/>
<path d="M2754 3940 c0 -74 1 -105 3 -67 2 37 2 97 0 135 -2 37 -3 6 -3 -68z"/>
<path d="M5436 3939 c-118 -29 -248 -138 -306 -255 -103 -209 -91 -412 36
-623 25 -41 34 -50 34 -34 0 79 191 174 460 229 64 13 94 25 119 47 45 39 114
69 138 61 10 -4 33 -18 52 -32 30 -23 40 -24 106 -19 69 5 73 4 85 -19 29 -53
30 -24 4 206 -13 121 -25 184 -49 259 -12 40 13 14 42 -42 41 -82 83 -211 118
-367 l32 -144 7 57 7 57 94 0 94 0 45 45 c57 57 94 60 138 13 16 -17 36 -44
44 -60 11 -20 22 -28 42 -28 47 0 229 -48 294 -78 73 -33 124 -73 134 -105 12
-36 44 74 51 173 19 281 -186 575 -456 654 -69 20 -186 20 -271 0 -36 -8 -129
-47 -208 -86 l-143 -71 -49 11 c-27 6 -95 31 -152 56 -186 79 -259 98 -388
102 -63 2 -132 -1 -154 -7z m-240 -291 c5 -7 2 -9 -7 -4 -8 4 -5 0 5 -8 15
-12 16 -16 5 -17 -11 0 -11 -2 0 -6 11 -5 11 -7 0 -14 -11 -7 -11 -9 -1 -9 8
0 10 -5 6 -12 -4 -6 -9 -34 -11 -62 -2 -28 -4 -61 -5 -73 -1 -13 -6 -23 -11
-23 -5 0 -3 -8 4 -17 10 -11 10 -14 2 -9 -9 5 -13 0 -13 -13 0 -12 1 -23 3
-26 1 -2 -7 -11 -18 -20 l-20 -15 20 7 c19 7 19 6 3 -11 -19 -18 -25 -41 -9
-32 5 4 7 -4 4 -15 -10 -37 -45 66 -50 147 -6 84 14 168 53 213 29 35 30 35
40 19z"/>
<path d="M4060 3920 c-18 -12 -2 -12 25 0 13 6 15 9 5 9 -8 0 -22 -4 -30 -9z"/>
<path d="M4070 3896 c-30 -13 -93 -42 -140 -66 -47 -23 -112 -53 -145 -66 -33
-13 -54 -23 -48 -24 7 0 36 9 65 20 36 14 55 17 63 9 7 -7 4 -8 -9 -3 -16 6
-18 4 -13 -11 7 -16 5 -16 -10 -4 -15 12 -16 12 -10 -5 7 -17 6 -17 -10 -5
-15 12 -16 12 -10 -3 4 -11 2 -17 -6 -15 -7 1 -11 -5 -9 -13 3 -11 -3 -9 -20
5 -13 11 -20 16 -16 11 4 -5 3 -15 -3 -23 -10 -11 -15 -11 -27 -1 -13 11 -14
11 -7 -1 6 -11 4 -13 -8 -8 -9 3 -26 -4 -42 -20 -20 -21 -24 -23 -19 -7 5 15
3 15 -10 -3 -10 -13 -23 -23 -29 -23 -7 0 -6 4 3 10 9 6 10 10 3 10 -6 0 -15
-5 -18 -10 -4 -6 -11 -7 -17 -4 -7 4 -8 2 -4 -4 5 -8 -1 -12 -16 -12 -13 0
-36 -1 -53 -3 -16 -2 -49 0 -72 3 -25 4 -40 3 -36 -3 3 -5 -7 -1 -23 9 -21 14
-26 15 -19 4 8 -13 6 -13 -8 -2 -9 8 -21 11 -27 7 -5 -3 -13 1 -16 10 -6 13
-8 14 -15 3 -6 -9 -9 -9 -9 -1 0 6 -8 12 -17 12 -37 -1 -152 31 -278 75 -71
26 -135 44 -142 42 -7 -3 -24 -1 -38 4 l-25 10 0 -68 c0 -110 19 -302 36 -372
35 -142 108 -251 198 -295 30 -15 92 -33 138 -40 l83 -14 -75 5 c-174 12 -266
68 -326 198 -46 102 -74 280 -74 483 0 69 -2 81 -15 77 -10 -4 -12 -11 -6 -22
5 -10 11 -91 14 -182 3 -94 12 -199 22 -245 20 -98 79 -225 135 -287 43 -49
163 -118 206 -118 48 0 54 -8 37 -48 -27 -66 -143 -263 -234 -399 -49 -73 -87
-133 -84 -133 13 0 249 369 301 471 14 28 28 49 30 46 7 -7 -47 -112 -119
-232 -126 -210 -334 -498 -630 -869 -263 -331 -355 -483 -392 -646 -28 -126
-9 -252 53 -364 33 -58 45 -74 101 -138 87 -99 285 -215 456 -267 158 -48 270
-64 450 -64 327 -1 576 57 1324 307 206 69 376 124 378 122 2 -2 -15 -11 -39
-19 -24 -8 -182 -64 -353 -125 -519 -184 -769 -255 -1032 -293 -126 -18 -175
-21 -333 -16 -195 6 -283 21 -434 71 -273 92 -494 279 -578 491 -29 72 -32 90
-32 185 0 83 5 119 23 170 43 126 148 290 355 555 25 33 28 38 7 15 -129 -142
-293 -379 -356 -513 -62 -131 -78 -206 -72 -347 7 -183 61 -302 202 -446 214
-217 518 -336 900 -351 394 -16 733 67 1805 439 658 228 959 350 1253 505 440
233 665 469 755 795 13 47 17 101 17 213 -1 133 -4 161 -28 249 -16 54 -39
122 -51 150 l-23 52 123 144 c184 214 304 390 304 445 0 30 -43 71 -112 106
-60 30 -212 73 -298 85 -42 6 -53 12 -65 34 -25 48 -66 90 -88 90 -12 0 -42
-21 -68 -46 l-48 -47 -89 2 -89 2 -10 -70 -9 -71 88 0 c104 0 155 -15 247 -74
89 -57 156 -133 178 -202 14 -46 15 -61 5 -106 -14 -59 -50 -111 -96 -139 -48
-29 -54 -23 -8 10 22 16 43 35 48 42 4 7 -11 -2 -34 -20 -22 -19 -47 -31 -54
-28 -7 2 -29 35 -48 72 -19 37 -38 69 -42 71 -9 6 32 76 54 92 10 7 23 23 29
35 10 19 8 19 -17 -5 -16 -15 -42 -32 -57 -37 -47 -18 -157 -13 -206 9 -53 25
-54 25 -46 0 3 -10 -1 -32 -9 -48 -18 -34 -12 -42 43 -61 46 -15 68 -14 75 5
3 8 2 12 -4 9 -16 -10 -12 11 5 25 11 9 15 9 15 1 0 -8 12 -10 38 -6 20 3 30
2 22 -2 -16 -8 -26 -34 -13 -32 21 3 18 -4 -15 -37 -20 -20 -38 -32 -39 -27
-2 6 -10 19 -19 29 -12 16 -12 12 2 -21 9 -22 20 -52 26 -67 5 -16 14 -28 19
-28 5 0 9 -4 9 -10 0 -22 -149 5 -221 39 -47 23 -68 21 -22 -2 49 -25 126 -46
198 -56 59 -7 63 -9 25 -10 -63 -1 -160 24 -231 60 -47 23 -60 27 -56 14 11
-26 -49 13 -90 60 -99 113 -104 259 -10 355 35 36 119 80 155 80 12 0 22 4 22
9 0 25 -55 271 -81 366 -30 105 -58 177 -44 110 16 -73 25 -138 35 -245 17
-196 14 -212 -34 -139 l-27 40 -73 -2 c-66 -2 -77 1 -108 25 -19 14 -46 26
-59 26 -26 0 -80 -29 -119 -65 -17 -16 -57 -30 -130 -45 -173 -37 -331 -99
-399 -155 -25 -21 -31 -34 -31 -64 0 -34 10 -48 100 -143 228 -242 803 -720
961 -800 l52 -27 55 47 c30 25 101 96 158 156 58 60 106 107 108 105 3 -2 14
-41 25 -86 76 -298 -6 -563 -239 -770 -275 -243 -679 -434 -1545 -728 -77 -26
-196 -67 -265 -91 -794 -272 -991 -329 -1275 -369 -134 -20 -396 -19 -508 0
-409 72 -702 298 -736 570 -24 191 54 361 324 710 449 580 610 816 767 1123
48 95 88 179 88 186 0 8 31 19 87 30 233 46 448 195 587 408 69 106 100 171
171 359 34 91 60 145 69 147 12 3 16 15 15 45 l-2 42 -7 -40 c-4 -22 -8 -31
-9 -19 -1 26 -31 54 -57 54 -10 -1 -44 -11 -74 -24z m-2 -103 c-9 -10 -21 -36
-28 -58 -27 -82 -105 -243 -158 -323 -87 -133 -192 -229 -324 -297 -32 -17
-58 -34 -58 -38 0 -5 -4 -6 -9 -3 -5 3 -25 -1 -45 -9 -20 -8 -38 -15 -41 -15
-36 1 -45 -1 -41 -9 4 -5 -13 -7 -36 -5 -35 3 -38 2 -18 -5 32 -12 -104 -4
-175 10 -163 32 -247 174 -275 466 -5 59 -10 129 -10 156 0 60 6 60 144 8 289
-111 608 -87 925 67 86 42 149 70 160 71 2 1 -3 -7 -11 -16z m-362 -115 c4 -7
4 -10 -1 -6 -4 4 -15 2 -24 -5 -14 -11 -14 -10 -2 6 16 20 18 21 27 5z m23
-539 c-24 -22 -63 -52 -85 -65 -58 -34 -208 -83 -274 -90 -51 -4 -46 -2 63 35
121 41 231 94 295 141 53 39 53 27 1 -21z m-720 -135 c14 -12 -19 -1 -35 12
-18 14 -18 14 6 3 14 -6 27 -13 29 -15z m3528 -286 c0 -7 17 -41 37 -75 35
-60 96 -193 96 -210 0 -4 -24 39 -54 97 -67 133 -89 170 -100 170 -5 0 -3 7 4
15 15 18 17 18 17 3z m-192 -139 c33 -10 68 -19 77 -19 9 0 20 -5 23 -10 4 -6
3 -10 -2 -9 -20 3 -27 -2 -13 -11 13 -9 13 -10 0 -10 -13 0 -13 -1 0 -10 11
-7 11 -10 2 -10 -7 0 -10 -4 -7 -10 3 -5 1 -10 -6 -10 -7 0 -9 -3 -6 -7 4 -3
1 -13 -6 -21 -8 -11 -8 -14 0 -9 7 5 6 -4 -3 -23 -21 -42 -30 -44 -52 -13 -29
42 -53 94 -39 86 7 -3 4 3 -7 15 -10 12 -18 33 -18 46 0 15 -5 23 -11 19 -6
-3 -7 -1 -3 5 3 6 -2 16 -11 22 -16 10 -16 11 2 5 11 -4 47 -16 80 -26z m465
-740 c-12 -39 -24 -69 -27 -66 -3 3 5 40 18 83 13 43 25 72 27 65 2 -6 -6 -43
-18 -82z m-350 -404 c-29 -31 -220 -163 -220 -152 0 2 30 24 68 49 37 25 90
64 117 86 58 48 69 53 35 17z m-500 -386 c-71 -48 -351 -169 -645 -279 -326
-121 -781 -267 -635 -204 19 8 152 58 295 111 143 52 319 117 390 143 148 55
391 152 510 204 80 35 113 45 85 25z"/>
<path d="M6298 2568 c-7 -17 15 -19 29 -3 4 4 3 5 -4 2 -6 -4 -13 -2 -15 5 -3
8 -6 6 -10 -4z"/>
<path d="M6367 2403 c3 -7 6 -13 8 -13 2 0 5 6 8 13 3 8 -1 14 -8 14 -7 0 -11
-6 -8 -14z"/>
<path d="M3988 3889 c-21 -11 -38 -22 -38 -24 0 -5 79 32 89 41 12 11 -18 1
-51 -17z"/>
<path d="M3870 3830 c-19 -11 -30 -19 -25 -19 6 0 26 8 45 19 19 11 31 19 25
19 -5 0 -26 -8 -45 -19z"/>
<path d="M3730 3775 c-19 -7 -28 -14 -20 -14 8 0 29 6 45 14 39 17 21 18 -25
0z"/>
<path d="M3638 3743 c7 -3 16 -2 19 1 4 3 -2 6 -13 5 -11 0 -14 -3 -6 -6z"/>
<path d="M3598 3733 c7 -3 16 -2 19 1 4 3 -2 6 -13 5 -11 0 -14 -3 -6 -6z"/>
<path d="M3660 3725 c-19 -7 -28 -13 -20 -13 8 0 31 6 50 13 19 7 28 13 20 13
-8 0 -31 -6 -50 -13z"/>
<path d="M3770 3729 c0 -5 5 -7 10 -4 6 3 10 8 10 11 0 2 -4 4 -10 4 -5 0 -10
-5 -10 -11z"/>
<path d="M6405 3121 c-100 -25 -131 -90 -79 -167 l26 -39 -28 27 c-15 14 -30
44 -34 65 -8 37 -8 38 -9 6 -1 -23 8 -43 30 -67 17 -20 34 -35 37 -34 4 1 33
-8 65 -20 98 -37 203 -24 241 29 22 33 20 85 -6 121 -39 55 -170 98 -243 79z
m119 -32 c56 -16 98 -60 94 -100 -6 -64 -85 -90 -178 -59 -73 24 -100 62 -80
114 18 47 88 66 164 45z"/>
<path d="M6252 3010 c0 -14 2 -19 5 -12 2 6 2 18 0 25 -3 6 -5 1 -5 -13z"/>
<path d="M6255 2939 c-5 -31 -3 -45 9 -57 9 -9 16 -11 16 -5 0 6 -5 13 -12 15
-10 4 -10 13 -1 41 6 20 7 39 3 42 -5 3 -11 -13 -15 -36z"/>
<path d="M6286 2925 c-9 -26 -7 -32 5 -12 6 10 9 21 6 23 -2 3 -7 -2 -11 -11z"/>
<path d="M6280 2840 c6 -11 20 -25 33 -31 17 -10 16 -6 -8 19 -35 37 -40 39
-25 12z"/>
<path d="M6130 2726 c0 -2 8 -10 18 -17 15 -13 16 -12 3 4 -13 16 -21 21 -21
13z"/>
<path d="M2789 2283 c-13 -16 -12 -17 4 -4 9 7 17 15 17 17 0 8 -8 3 -21 -13z"/>
<path d="M2759 2243 c-13 -16 -12 -17 4 -4 16 13 21 21 13 21 -2 0 -10 -8 -17
-17z"/>
<path d="M2729 2203 c-13 -16 -12 -17 4 -4 9 7 17 15 17 17 0 8 -8 3 -21 -13z"/>
<path d="M2699 2163 c-13 -16 -12 -17 4 -4 16 13 21 21 13 21 -2 0 -10 -8 -17
-17z"/>
<path d="M2669 2123 c-13 -16 -12 -17 4 -4 16 13 21 21 13 21 -2 0 -10 -8 -17
-17z"/>
<path d="M2639 2083 c-13 -16 -12 -17 4 -4 16 13 21 21 13 21 -2 0 -10 -8 -17
-17z"/>
<path d="M2609 2043 c-13 -16 -12 -17 4 -4 16 13 21 21 13 21 -2 0 -10 -8 -17
-17z"/>
<path d="M2569 1993 c-13 -16 -12 -17 4 -4 16 13 21 21 13 21 -2 0 -10 -8 -17
-17z"/>
<path d="M2534 1948 l-19 -23 23 19 c12 11 22 21 22 23 0 8 -8 2 -26 -19z"/>
<path d="M2454 1848 c-32 -40 -51 -67 -43 -60 19 14 112 132 106 132 -3 0 -31
-33 -63 -72z"/>
</g>
</svg>
